<svg width="40" height="40" viewBox="0 0 40 40" fill="none" xmlns="http://www.w3.org/2000/svg">
<path d="M28.333 3.33304C30.5413 3.33963 32.6572 4.21978 34.2187 5.78127C35.7802 7.34276 36.6604 9.4587 36.667 11.667V28.333C36.6604 30.5413 35.7802 32.6572 34.2187 34.2187C32.6572 35.7802 30.5413 36.6604 28.333 36.667H11.667C9.4587 36.6604 7.34276 35.7802 5.78127 34.2187C4.21978 32.6572 3.33963 30.5413 3.33304 28.333V11.667C3.33963 9.4587 4.21978 7.34276 5.78127 5.78127C7.34276 4.21978 9.4587 3.33963 11.667 3.33304H28.333ZM28.333 0H11.667C5.25 0 0 5.25 0 11.667V28.333C0 34.75 5.25 40 11.667 40H28.333C34.75 40 40 34.75 40 28.333V11.667C40 5.25 34.75 0 28.333 0Z" fill="#86705C"/>
<path d="M30.3174 11.5726C29.8088 11.5726 29.3117 11.4218 28.8888 11.1392C28.4659 10.8567 28.1363 10.4551 27.9417 9.9852C27.7471 9.51533 27.6961 8.9983 27.7954 8.49948C27.8946 8.00067 28.1395 7.54248 28.4991 7.18285C28.8587 6.82323 29.3169 6.57832 29.8158 6.4791C30.3146 6.37988 30.8316 6.4308 31.3015 6.62543C31.7713 6.82006 32.173 7.14965 32.4555 7.57252C32.7381 7.9954 32.8889 8.49256 32.8889 9.00115C32.8896 9.33904 32.8236 9.67375 32.6946 9.98606C32.5656 10.2984 32.3763 10.5821 32.1373 10.8211C31.8984 11.06 31.6146 11.2494 31.3023 11.3783C30.99 11.5073 30.6553 11.5733 30.3174 11.5726ZM19.1747 13.2863C20.531 13.2863 21.8569 13.6885 22.9846 14.442C24.1123 15.1955 24.9912 16.2665 25.5103 17.5196C26.0293 18.7726 26.1651 20.1514 25.9005 21.4817C25.6359 22.8119 24.9828 24.0338 24.0237 24.9928C23.0647 25.9519 21.8428 26.605 20.5126 26.8696C19.1823 27.1342 17.8035 26.9984 16.5505 26.4794C15.2974 25.9603 14.2264 25.0814 13.4729 23.9537C12.7194 22.826 12.3172 21.5001 12.3172 20.1438C12.3191 18.3257 13.0423 16.5826 14.3279 15.297C15.6135 14.0114 17.3566 13.2882 19.1747 13.2863ZM19.1747 9.858C17.1404 9.858 15.1517 10.4612 13.4602 11.5915C11.7687 12.7217 10.4504 14.3281 9.67185 16.2076C8.89334 18.0871 8.68965 20.1552 9.08653 22.1505C9.48341 24.1458 10.463 25.9785 11.9015 27.417C13.34 28.8555 15.1728 29.8352 17.1681 30.232C19.1633 30.6289 21.2315 30.4252 23.111 29.6467C24.9904 28.8682 26.5969 27.5498 27.7271 25.8583C28.8573 24.1668 29.4606 22.1782 29.4606 20.1438C29.4606 17.4159 28.3769 14.7996 26.4479 12.8707C24.519 10.9417 21.9027 9.858 19.1747 9.858Z" fill="#86705C"/>
</svg>
