<svg width="50" height="40" viewBox="0 0 50 40" fill="none" xmlns="http://www.w3.org/2000/svg">
<path fill-rule="evenodd" clip-rule="evenodd" d="M6.69049 5.35845C5.2394 5.35845 4.66217 6.45123 4.66217 7.00942V32.9906C4.66217 33.5488 5.2394 34.6415 6.69049 34.6415H43.3095C44.7606 34.6415 45.3378 33.5488 45.3378 32.9906V7.00942C45.3378 6.45123 44.7606 5.35845 43.3095 5.35845H6.69049ZM0 7.00942C0 2.78461 3.32632 0 6.69049 0H43.3095C46.6737 0 50 2.78461 50 7.00942V32.9906C50 37.2154 46.6737 40 43.3095 40H6.69049C3.32632 40 0 37.2154 0 32.9906V7.00942Z" fill="#86705C"/>
<path fill-rule="evenodd" clip-rule="evenodd" d="M7.13301 7.70953C7.86094 6.46806 9.32894 6.13813 10.4119 6.97263L25.0002 18.2141L39.5885 6.97263C40.6714 6.13813 42.1394 6.46806 42.8674 7.70953C43.5953 8.95101 43.3075 10.6339 42.2246 11.4684L26.3182 23.7255C25.5212 24.3397 24.4792 24.3397 23.6821 23.7255L7.77581 11.4684C6.69287 10.6339 6.40508 8.95101 7.13301 7.70953Z" fill="#86705C"/>
</svg>
