<svg width="50" height="37" viewBox="0 0 50 37" fill="none" xmlns="http://www.w3.org/2000/svg">
<path d="M49.6787 8.16965C49.6787 3.83383 46.4459 0.345902 42.4513 0.345902C37.0404 0.0963512 31.5221 0 25.8828 0H24.1247C18.499 0 12.971 0.0963514 7.56014 0.346865C3.57526 0.346865 0.342434 3.85406 0.342434 8.18988C0.0982625 11.619 -0.00526618 15.0491 0.00059393 18.4793C-0.00917293 21.9094 0.101518 25.3427 0.332667 28.7792C0.332667 33.1151 3.5655 36.6319 7.55037 36.6319C13.2347 36.892 19.0655 37.0077 24.994 36.998C30.9322 37.0173 36.7468 36.8953 42.4376 36.6319C46.4322 36.6319 49.6651 33.1151 49.6651 28.7792C49.8995 25.3395 50.0069 21.9094 49.9971 18.4696C50.0193 15.0395 49.9131 11.6062 49.6787 8.16965ZM20.218 27.9314V8.99827L34.3799 18.46L20.218 27.9314Z" fill="#86705C"/>
</svg>
